<?xml version="1.0" encoding="UTF-8" standalone="no"?>
<!DOCTYPE svg PUBLIC "-//W3C//DTD SVG 1.1//EN" "http://www.w3.org/Graphics/SVG/1.1/DTD/svg11.dtd">
<svg width="100%" height="100%" viewBox="0 0 751 249" version="1.1" xmlns="http://www.w3.org/2000/svg" xmlns:xlink="http://www.w3.org/1999/xlink" xml:space="preserve" xmlns:serif="http://www.serif.com/" style="fill-rule:evenodd;clip-rule:evenodd;stroke-linecap:round;stroke-linejoin:round;stroke-miterlimit:10;">
    <g transform="matrix(1,0,0,1,0,13.8231)">
        <path d="M335.963,95.692L354.957,95.692L354.957,142.697L358.919,142.697L358.919,95.692L377.909,95.692L377.909,91.73L335.963,91.73L335.963,95.692Z" style="fill:white;fill-rule:nonzero;"/>
    </g>
    <g transform="matrix(1,0,0,1,0,13.7675)">
        <path d="M261.558,122.438L240.947,122.438L240.947,97.515L249.074,96.777L249.074,96.814L250.012,96.724C250.567,96.671 251.322,96.591 252.193,96.497L252.289,96.486C255.265,96.171 259.764,95.694 261.558,95.694C268.643,95.694 274.407,100.993 274.407,107.505C274.407,116.438 269.588,122.02 261.558,122.438M261.558,91.73C259.573,91.73 255.201,92.191 251.949,92.537L251.949,92.534L236.983,93.895L236.983,142.753L240.947,142.753L240.947,126.401L261.657,126.399C267.238,126.11 271.731,123.87 274.651,119.924C277.048,116.679 278.371,112.268 278.371,107.505C278.371,98.81 270.826,91.73 261.558,91.73" style="fill:white;fill-rule:nonzero;"/>
    </g>
    <g transform="matrix(1,0,0,1,0,11.4365)">
        <path d="M300.231,121.651C300.231,121.651 309.702,99.701 309.776,99.531C309.959,99.102 309.959,98.709 309.959,98.709C309.959,98.709 309.959,99.102 310.14,99.501C310.193,99.62 326.968,136.496 327.214,137.035C327.458,137.573 327.791,138.044 328.019,138.4C328.019,138.4 327.119,137.588 326.773,137.384C325.96,136.899 300.231,121.651 300.231,121.651M308.815,91.73L285.84,145.083L290.133,145.083L298.653,125.322L331.99,145.084L335.228,145.076L310.953,91.73L308.815,91.73Z" style="fill:white;fill-rule:nonzero;"/>
    </g>
    <g transform="matrix(1,0,0,1,0,13.8627)">
        <path d="M395.407,112.233L395.407,97.468L403.534,96.729L403.534,96.766L404.472,96.675C405.025,96.623 405.782,96.544 406.653,96.45L406.748,96.438C409.725,96.125 414.222,95.646 416.018,95.646C423.102,95.646 428.865,100.945 428.865,107.457C428.865,116.39 424.046,121.972 416.018,122.39L408.608,122.39L395.407,112.233ZM413.422,126.068C414.034,126.265 414.279,126.344 414.65,126.359C415.246,126.386 416.117,126.351 416.117,126.351C421.698,126.061 426.191,123.822 429.111,119.876C431.507,116.631 432.831,112.22 432.831,107.457C432.831,98.761 425.286,91.682 416.018,91.682C414.031,91.682 409.66,92.143 406.409,92.491L406.409,92.488L391.441,93.849L391.441,142.705L395.407,142.705L395.407,117.24L402.174,122.39L407.379,126.352L428.865,142.705L435.008,142.705C435.008,142.705 414.697,127.136 414.224,126.712C413.751,126.289 413.422,126.068 413.422,126.068" style="fill:white;fill-rule:nonzero;"/>
    </g>
    <g transform="matrix(1,0,0,1,0,13.8632)">
        <path d="M546.828,136.026L511.58,91.691L507.807,91.691L507.807,142.696L511.77,142.696L511.77,98.302L547.035,142.655L550.789,142.655L550.789,91.691L546.828,91.691L546.828,136.026Z" style="fill:white;fill-rule:nonzero;"/>
    </g>
    <g transform="matrix(1,0,0,1,0,13.7728)">
        <rect x="571.205" y="91.781" width="3.963" height="50.916" style="fill:white;"/>
    </g>
    <g transform="matrix(1,0,0,1,0,13.7723)">
        <path d="M588.258,95.745L606.806,95.745L606.802,142.697L610.768,142.697L610.768,95.745L630.208,95.745L630.208,91.781L588.258,91.781L588.258,95.745Z" style="fill:white;fill-rule:nonzero;"/>
    </g>
    <g transform="matrix(1,0,0,1,0,13.8117)">
        <path d="M645.659,138.667L645.659,120.665L674.337,120.665L674.337,117.333C674.337,117.333 650.295,96.774 649.876,96.407C649.021,95.629 648.67,95.597 648.67,95.597C648.67,95.597 649.503,95.689 650.379,95.689L680.623,95.689L680.623,91.723L641.69,91.742L641.69,94.527C641.69,94.527 666.432,115.728 666.808,116.103C667.182,116.479 667.937,116.874 667.937,116.874C667.937,116.874 667.402,116.702 666.609,116.702L641.69,116.702L641.69,142.715L684.408,142.706L684.408,138.667L645.659,138.667Z" style="fill:white;fill-rule:nonzero;"/>
    </g>
    <g transform="matrix(1,0,0,1,0,12.78)">
        <path d="M641.691,117.735L645.66,117.735" style="fill:none;fill-rule:nonzero;stroke:rgb(35,31,32);stroke-width:0.31px;"/>
    </g>
    <g transform="matrix(1,0,0,1,0,13.4059)">
        <path d="M488.14,121.017C488.14,128.218 484.519,132.654 483.213,134.106L482.412,134.997C478.891,138.421 474.306,140.318 469.438,140.355L469.143,140.344L468.848,140.355C463.98,140.318 459.395,138.421 455.873,134.997L455.073,134.106C453.767,132.654 450.146,128.218 450.146,121.017L450.146,114.278C450.146,103.537 458.605,94.67 469.029,94.505L469.143,94.501L469.257,94.505C479.681,94.67 488.14,103.537 488.14,114.278L488.14,121.017ZM470.73,90.609L470.72,90.581L470.075,90.544L469.252,90.526L469.143,90.533L469.034,90.526L468.211,90.544L467.566,90.581L467.556,90.609C455.52,91.534 446.184,101.811 446.184,114.278L446.184,121.017C446.184,126.426 448.018,131.648 451.359,135.78L452.171,136.67C456.523,141.439 462.619,144.318 468.983,144.318C469.037,144.318 469.089,144.315 469.143,144.312C469.197,144.315 469.249,144.318 469.303,144.318C475.667,144.318 481.761,141.439 486.114,136.67L486.927,135.78C490.268,131.648 492.102,126.426 492.102,121.017L492.102,114.278C492.102,101.811 482.765,91.534 470.73,90.609" style="fill:white;fill-rule:nonzero;"/>
    </g>
    <g transform="matrix(0.866028,0.499995,0.499995,-0.866028,-54.2965,159.932)">
        <path d="M155.997,135.014L173.199,122.176L176.277,100.981L166.814,166.131L164.124,168.139L101.212,189.977L99.038,177.526L155.997,135.014Z" style="fill:url(#_Linear1);"/>
    </g>
    <g transform="matrix(0,-1,-1,0,287.851,299.683)">
        <path d="M159.776,130.653L139.84,138.601L159.776,130.653ZM200.219,114.617L139.065,138.997L156.339,98.968L160.217,97.421L200.219,114.617Z" style="fill:url(#_Linear2);"/>
    </g>
    <g transform="matrix(-0.866027,-0.499998,-0.499998,0.866027,298.668,155.969)">
        <path d="M127.412,78.977L140.252,96.177L161.491,99.261L178.691,86.422L154.484,128.35L123.304,123.823L95.25,86.239L101.389,43.959L127.418,78.933L127.412,78.977Z" style="fill:url(#_Linear3);"/>
    </g>
    <g transform="matrix(0,-1,-1,0,180.815,243.977)">
        <path d="M122.446,72.16L103.87,112.532L102.881,112.928L59.796,94.404L54.096,80.109L102.51,80.109L122.446,72.16Z" style="fill:url(#_Linear4);"/>
    </g>
    <g transform="matrix(-0.940879,-0.338744,-0.338744,0.940879,227.08,41.2515)">
        <path d="M68.548,100.995L114.373,100.995L115.922,146.803L84.23,115.649L68.548,100.995Z" style="fill:url(#_Linear5);"/>
    </g>
    <g transform="matrix(-0.394977,-0.918691,-0.918691,0.394977,295.18,142.816)">
        <path d="M78.05,126.315L149.125,126.315L124.517,174.967L93.226,141.488L78.05,126.315Z" style="fill:url(#_Linear6);"/>
    </g>
    <defs>
        <linearGradient id="_Linear1" x1="0" y1="0" x2="1" y2="0" gradientUnits="userSpaceOnUse" gradientTransform="matrix(77.2388,-7.10543e-15,7.10543e-15,77.2388,99.0382,145.479)"><stop offset="0" style="stop-color:rgb(241,90,41);stop-opacity:1"/><stop offset="1" style="stop-color:rgb(237,28,36);stop-opacity:1"/></linearGradient>
        <linearGradient id="_Linear2" x1="0" y1="0" x2="1" y2="0" gradientUnits="userSpaceOnUse" gradientTransform="matrix(61.1528,-3.74453e-15,3.74453e-15,61.1528,139.065,118.209)"><stop offset="0" style="stop-color:rgb(237,28,36);stop-opacity:1"/><stop offset="1" style="stop-color:rgb(241,90,41);stop-opacity:1"/></linearGradient>
        <linearGradient id="_Linear3" x1="0" y1="0" x2="1" y2="0" gradientUnits="userSpaceOnUse" gradientTransform="matrix(83.4407,0.000223205,-0.000223205,83.4407,95.2496,86.1545)"><stop offset="0" style="stop-color:rgb(241,90,41);stop-opacity:1"/><stop offset="1" style="stop-color:rgb(237,28,36);stop-opacity:1"/></linearGradient>
        <linearGradient id="_Linear4" x1="0" y1="0" x2="1" y2="0" gradientUnits="userSpaceOnUse" gradientTransform="matrix(68.3495,-4.1852e-15,4.1852e-15,68.3495,54.0959,92.5435)"><stop offset="0" style="stop-color:rgb(241,90,41);stop-opacity:1"/><stop offset="1" style="stop-color:rgb(237,28,36);stop-opacity:1"/></linearGradient>
        <linearGradient id="_Linear5" x1="0" y1="0" x2="1" y2="0" gradientUnits="userSpaceOnUse" gradientTransform="matrix(-9.46918,-52.6281,52.6281,-9.46918,100.211,149.63)"><stop offset="0" style="stop-color:rgb(241,90,41);stop-opacity:1"/><stop offset="1" style="stop-color:rgb(237,28,36);stop-opacity:1"/></linearGradient>
        <linearGradient id="_Linear6" x1="0" y1="0" x2="1" y2="0" gradientUnits="userSpaceOnUse" gradientTransform="matrix(1.49603,-49.3538,49.3538,1.49603,112.124,174.592)"><stop offset="0" style="stop-color:rgb(241,90,41);stop-opacity:1"/><stop offset="1" style="stop-color:rgb(237,28,36);stop-opacity:1"/></linearGradient>
    </defs>
</svg>
