<?xml version="1.0" encoding="UTF-8" standalone="no"?>
<svg
   id="visual"
   viewBox="0 0 250 100"
   width="250"
   height="100"
   version="1.1"
   sodipodi:docname="wave-haikeiUpsiteDown-white.svg"
   inkscape:version="1.2 (dc2aedaf03, 2022-05-15)"
   xmlns:inkscape="http://www.inkscape.org/namespaces/inkscape"
   xmlns:sodipodi="http://sodipodi.sourceforge.net/DTD/sodipodi-0.dtd"
   xmlns="http://www.w3.org/2000/svg"
   xmlns:svg="http://www.w3.org/2000/svg">
  <defs
     id="defs5011" />
  <sodipodi:namedview
     id="namedview5009"
     pagecolor="#505050"
     bordercolor="#eeeeee"
     borderopacity="1"
     inkscape:showpageshadow="0"
     inkscape:pageopacity="0"
     inkscape:pagecheckerboard="0"
     inkscape:deskcolor="#505050"
     showgrid="false"
     inkscape:zoom="4.84"
     inkscape:cx="117.7686"
     inkscape:cy="50"
     inkscape:window-width="2560"
     inkscape:window-height="1417"
     inkscape:window-x="2552"
     inkscape:window-y="-8"
     inkscape:window-maximized="1"
     inkscape:current-layer="visual" />
  <rect
     x="0"
     y="0"
     width="250"
     height="100"
     fill="#101010"
     id="rect5004" />
  <path
     d="M0 15L6 23.8C12 32.7 24 50.3 35.8 54.8C47.7 59.3 59.3 50.7 71.2 46.2C83 41.7 95 41.3 107 38.2C119 35 131 29 143 30.5C155 32 167 41 178.8 38.2C190.7 35.3 202.3 20.7 214.2 22.5C226 24.3 238 42.7 244 51.8L250 61L250 0L244 0C238 0 226 0 214.2 0C202.3 0 190.7 0 178.8 0C167 0 155 0 143 0C131 0 119 0 107 0C95 0 83 0 71.2 0C59.3 0 47.7 0 35.8 0C24 0 12 0 6 0L0 0Z"
     fill="#5f16c5"
     stroke-linecap="round"
     stroke-linejoin="miter"
     id="path5006" />
  <path
     style="fill:#f5f5f5;stroke-width:0.730917"
     d="M 0,57.603306 C 0,33.641743 0.07783153,15.394994 0.17956525,15.506198 c 0.0987609,0.107955 2.29005315,3.298468 4.86953805,7.09003 5.6267857,8.270762 7.6959987,11.145053 10.8950437,15.134022 8.120586,10.125764 14.815159,15.6607 21.379568,17.676188 1.684126,0.517083 2.115899,0.562556 5.44488,0.573459 5.853878,0.01917 8.517891,-0.770945 19.600289,-5.813197 12.267124,-5.581276 14.919486,-6.3409 33.395579,-9.56433 7.701997,-1.343727 12.039977,-2.415238 19.318177,-4.771726 12.60968,-4.082672 16.19159,-4.967071 21.69422,-5.356452 5.85166,-0.41408 9.57883,0.353409 20.16866,4.153079 9.26465,3.32419 12.52978,4.111628 17.05098,4.112115 5.93974,6.2e-4 9.22468,-1.371442 20.01176,-8.358714 6.02037,-3.89966 6.93083,-4.443933 9.33531,-5.580681 8.21717,-3.884767 13.92548,-2.958247 21.63709,3.511927 5.80796,4.872968 11.44632,12.059094 21.16804,26.97876 L 250,61.20119 V 80.548942 99.896694 H 125 0 Z"
     id="path5493" />
</svg>
