<svg id="visual" viewBox="0 0 960 300" width="960" height="300" xmlns="http://www.w3.org/2000/svg" xmlns:xlink="http://www.w3.org/1999/xlink" version="1.1"><rect x="0" y="0" width="960" height="300" fill="#101010"></rect><path d="M0 89L12.3 104.7C24.7 120.3 49.3 151.7 74 153.3C98.7 155 123.3 127 148 116.7C172.7 106.3 197.3 113.7 221.8 125.5C246.3 137.3 270.7 153.7 295.2 156.5C319.7 159.3 344.3 148.7 369 152.7C393.7 156.7 418.3 175.3 443 169.3C467.7 163.3 492.3 132.7 517 133.3C541.7 134 566.3 166 591 176.8C615.7 187.7 640.3 177.3 664.8 159.7C689.3 142 713.7 117 738.2 105.7C762.7 94.3 787.3 96.7 812 106C836.7 115.3 861.3 131.7 886 144C910.7 156.3 935.3 164.7 947.7 168.8L960 173L960 0L947.7 0C935.3 0 910.7 0 886 0C861.3 0 836.7 0 812 0C787.3 0 762.7 0 738.2 0C713.7 0 689.3 0 664.8 0C640.3 0 615.7 0 591 0C566.3 0 541.7 0 517 0C492.3 0 467.7 0 443 0C418.3 0 393.7 0 369 0C344.3 0 319.7 0 295.2 0C270.7 0 246.3 0 221.8 0C197.3 0 172.7 0 148 0C123.3 0 98.7 0 74 0C49.3 0 24.7 0 12.3 0L0 0Z" fill="#5f16c5" stroke-linecap="round" stroke-linejoin="miter"></path></svg>