<svg id="visual" viewBox="0 0 320 480" width="320" height="480" xmlns="http://www.w3.org/2000/svg" xmlns:xlink="http://www.w3.org/1999/xlink" version="1.1"><rect x="0" y="0" width="320" height="480" fill="#101010"></rect><path d="M0 130L6.7 121.8C13.3 113.7 26.7 97.3 40 92.2C53.3 87 66.7 93 80 90.2C93.3 87.3 106.7 75.7 120 81C133.3 86.3 146.7 108.7 160 109.2C173.3 109.7 186.7 88.3 200 84.3C213.3 80.3 226.7 93.7 240 92.3C253.3 91 266.7 75 280 72.7C293.3 70.3 306.7 81.7 313.3 87.3L320 93L320 0L313.3 0C306.7 0 293.3 0 280 0C266.7 0 253.3 0 240 0C226.7 0 213.3 0 200 0C186.7 0 173.3 0 160 0C146.7 0 133.3 0 120 0C106.7 0 93.3 0 80 0C66.7 0 53.3 0 40 0C26.7 0 13.3 0 6.7 0L0 0Z" fill="#ff006e" stroke-linecap="round" stroke-linejoin="miter"></path></svg>