<svg id="visual" viewBox="0 0 960 300" width="960" height="300" xmlns="http://www.w3.org/2000/svg" xmlns:xlink="http://www.w3.org/1999/xlink" version="1.1"><rect x="0" y="0" width="960" height="300" fill="#101010"></rect><path d="M0 111L10.7 118.8C21.3 126.7 42.7 142.3 64 156.2C85.3 170 106.7 182 128 178.3C149.3 174.7 170.7 155.3 192 154.3C213.3 153.3 234.7 170.7 256 163.5C277.3 156.3 298.7 124.7 320 127.8C341.3 131 362.7 169 384 181.8C405.3 194.7 426.7 182.3 448 181.3C469.3 180.3 490.7 190.7 512 178.7C533.3 166.7 554.7 132.3 576 132.2C597.3 132 618.7 166 640 170.8C661.3 175.7 682.7 151.3 704 146.3C725.3 141.3 746.7 155.7 768 165.5C789.3 175.3 810.7 180.7 832 173.5C853.3 166.3 874.7 146.7 896 140.8C917.3 135 938.7 143 949.3 147L960 151L960 301L949.3 301C938.7 301 917.3 301 896 301C874.7 301 853.3 301 832 301C810.7 301 789.3 301 768 301C746.7 301 725.3 301 704 301C682.7 301 661.3 301 640 301C618.7 301 597.3 301 576 301C554.7 301 533.3 301 512 301C490.7 301 469.3 301 448 301C426.7 301 405.3 301 384 301C362.7 301 341.3 301 320 301C298.7 301 277.3 301 256 301C234.7 301 213.3 301 192 301C170.7 301 149.3 301 128 301C106.7 301 85.3 301 64 301C42.7 301 21.3 301 10.7 301L0 301Z" fill="#5f16c5" stroke-linecap="round" stroke-linejoin="miter"></path></svg>