<svg id="visual" viewBox="0 0 250 100" width="250" height="100" xmlns="http://www.w3.org/2000/svg" xmlns:xlink="http://www.w3.org/1999/xlink" version="1.1"><rect x="0" y="0" width="250" height="100" fill="#101010"></rect><path d="M0 51L6 55.5C12 60 24 69 35.8 74.7C47.7 80.3 59.3 82.7 71.2 74.2C83 65.7 95 46.3 107 45.2C119 44 131 61 143 62C155 63 167 48 178.8 39.8C190.7 31.7 202.3 30.3 214.2 31C226 31.7 238 34.3 244 35.7L250 37L250 101L244 101C238 101 226 101 214.2 101C202.3 101 190.7 101 178.8 101C167 101 155 101 143 101C131 101 119 101 107 101C95 101 83 101 71.2 101C59.3 101 47.7 101 35.8 101C24 101 12 101 6 101L0 101Z" fill="#5f16c5" stroke-linecap="round" stroke-linejoin="miter"></path></svg>