<svg id="visual" viewBox="0 0 250 100" width="250" height="100" xmlns="http://www.w3.org/2000/svg" xmlns:xlink="http://www.w3.org/1999/xlink" version="1.1"><rect x="0" y="0" width="250" height="100" fill="#101010"></rect><path d="M0 15L6 23.8C12 32.7 24 50.3 35.8 54.8C47.7 59.3 59.3 50.7 71.2 46.2C83 41.7 95 41.3 107 38.2C119 35 131 29 143 30.5C155 32 167 41 178.8 38.2C190.7 35.3 202.3 20.7 214.2 22.5C226 24.3 238 42.7 244 51.8L250 61L250 0L244 0C238 0 226 0 214.2 0C202.3 0 190.7 0 178.8 0C167 0 155 0 143 0C131 0 119 0 107 0C95 0 83 0 71.2 0C59.3 0 47.7 0 35.8 0C24 0 12 0 6 0L0 0Z" fill="#5f16c5" stroke-linecap="round" stroke-linejoin="miter"></path></svg>